<svg id="visual" viewBox="0 0 900 600" width="900" height="600" xmlns="http://www.w3.org/2000/svg" xmlns:xlink="http://www.w3.org/1999/xlink" version="1.1"><rect x="0" y="0" width="900" height="600" fill="#f4a29b"></rect><path d="M0 429L21.5 418.8C43 408.7 86 388.3 128.8 384.2C171.7 380 214.3 392 257.2 403.5C300 415 343 426 385.8 427.3C428.7 428.7 471.3 420.3 514.2 414.8C557 409.3 600 406.7 642.8 401.5C685.7 396.3 728.3 388.7 771.2 391.5C814 394.3 857 407.7 878.5 414.3L900 421L900 601L878.5 601C857 601 814 601 771.2 601C728.3 601 685.7 601 642.8 601C600 601 557 601 514.2 601C471.3 601 428.7 601 385.8 601C343 601 300 601 257.2 601C214.3 601 171.7 601 128.8 601C86 601 43 601 21.5 601L0 601Z" fill="#fa7268"></path><path d="M0 463L21.5 459C43 455 86 447 128.8 445.8C171.7 444.7 214.3 450.3 257.2 456.3C300 462.3 343 468.7 385.8 472C428.7 475.3 471.3 475.7 514.2 468.5C557 461.3 600 446.7 642.8 443.7C685.7 440.7 728.3 449.3 771.2 449.2C814 449 857 440 878.5 435.5L900 431L900 601L878.5 601C857 601 814 601 771.2 601C728.3 601 685.7 601 642.8 601C600 601 557 601 514.2 601C471.3 601 428.7 601 385.8 601C343 601 300 601 257.2 601C214.3 601 171.7 601 128.8 601C86 601 43 601 21.5 601L0 601Z" fill="#ef5f67"></path><path d="M0 449L21.5 450C43 451 86 453 128.8 454.2C171.7 455.3 214.3 455.7 257.2 458.3C300 461 343 466 385.8 471.5C428.7 477 471.3 483 514.2 479C557 475 600 461 642.8 457.3C685.7 453.7 728.3 460.3 771.2 466.5C814 472.7 857 478.3 878.5 481.2L900 484L900 601L878.5 601C857 601 814 601 771.2 601C728.3 601 685.7 601 642.8 601C600 601 557 601 514.2 601C471.3 601 428.7 601 385.8 601C343 601 300 601 257.2 601C214.3 601 171.7 601 128.8 601C86 601 43 601 21.5 601L0 601Z" fill="#e34c67"></path><path d="M0 489L21.5 497.3C43 505.7 86 522.3 128.8 526.7C171.7 531 214.3 523 257.2 521C300 519 343 523 385.8 521.8C428.7 520.7 471.3 514.3 514.2 507.8C557 501.3 600 494.7 642.8 490.5C685.7 486.3 728.3 484.7 771.2 483.8C814 483 857 483 878.5 483L900 483L900 601L878.5 601C857 601 814 601 771.2 601C728.3 601 685.7 601 642.8 601C600 601 557 601 514.2 601C471.3 601 428.7 601 385.8 601C343 601 300 601 257.2 601C214.3 601 171.7 601 128.8 601C86 601 43 601 21.5 601L0 601Z" fill="#d53867"></path><path d="M0 548L21.5 552.3C43 556.7 86 565.3 128.8 567.2C171.7 569 214.3 564 257.2 562.8C300 561.7 343 564.3 385.8 563C428.7 561.7 471.3 556.3 514.2 551.7C557 547 600 543 642.8 540C685.7 537 728.3 535 771.2 536.2C814 537.3 857 541.7 878.5 543.8L900 546L900 601L878.5 601C857 601 814 601 771.2 601C728.3 601 685.7 601 642.8 601C600 601 557 601 514.2 601C471.3 601 428.7 601 385.8 601C343 601 300 601 257.2 601C214.3 601 171.7 601 128.8 601C86 601 43 601 21.5 601L0 601Z" fill="#c62368"></path></svg>